<svg width="491" height="197" xmlns="http://www.w3.org/2000/svg"><g fill="#333" fill-rule="nonzero"><path d="M98.5.2C44.2.2.2 44.2.2 98.5s44 98.3 98.3 98.3 98.3-44 98.3-98.3S152.8.2 98.5.2zM31.6 165.4C15 148.8 4.5 126 3.9 100.7H70v88c-14.7-4.6-27.8-12.7-38.4-23.3zM14.5 97.1H3.9c0-1.8.1-3.6.2-5.4h72.1l-5.4 5.4H14.5zm59.1 92.7V99.4l5.2-5.2V191c-1.7-.3-3.4-.7-5.2-1.2zM14.5 88H4.4c.2-1.8.5-3.6.8-5.4h80.1L79.9 88H14.5zm73.1 104.5c-2.5-.3-5-.7-7.4-1.1h2.2V90.6l5.2-5.2v107.1zm9 .6c-1.8 0-3.5-.1-5.3-.2V80.8c0-.5-.2-.9-.5-1.3-.3-.3-.8-.5-1.3-.5H6c.4-1.8.8-3.6 1.3-5.4h89.3v119.5zm12.8-.6V85.4l5.2 5.2v100.8h2.2c-2.4.4-4.9.8-7.4 1.1zm14-2.7c-1.7.5-3.4.9-5.2 1.3V94.3l5.2 5.2v90.3zm42-24.4c-10.6 10.6-23.7 18.7-38.4 23.3v-88h66.1c-.5 25.3-11 48.1-27.7 64.7zm27.8-68.3h-66.9l-5.4-5.4H193c.1 1.8.1 3.6.2 5.4zm-.6-9.1h-75.5l-5.4-5.4h80.1c.3 1.8.6 3.6.8 5.4zm-1.4-9h-83.5c-.5 0-.9.2-1.3.5-.3.3-.5.8-.5 1.3v112.1c-1.8.1-3.7.2-5.6.3V73.6h89.6c.4 1.8.9 3.6 1.3 5.4zm-2.4-9.1H8.4c.6-1.8 1.2-3.6 1.9-5.4h176.6c.7 1.8 1.3 3.6 1.9 5.4zm-3.4-9H11.6c.8-1.8 1.6-3.6 2.6-5.4h168.6c.9 1.7 1.8 3.5 2.6 5.4zM16.2 51.8c4.2-7.4 9.4-14.2 15.4-20.2C48.7 14.5 72.4 3.9 98.5 3.9c26.1 0 49.8 10.6 66.9 27.7 6 6 11.2 12.8 15.4 20.2H16.2zM225 88.9h4.9V56.5h10.9v-4.7h-26.7v4.7H225v32.4zm35.8.7c5.4 0 9.9-1.9 13.6-5.6 3.7-3.8 5.6-8.3 5.6-13.6 0-5.3-1.9-9.9-5.6-13.6-3.7-3.7-8.3-5.6-13.6-5.6-5.4 0-9.9 1.9-13.6 5.6-3.7 3.7-5.6 8.3-5.6 13.6 0 5.3 1.9 9.9 5.6 13.6 3.7 3.7 8.2 5.6 13.6 5.6zm-10.2-29.5c2.7-2.8 6.1-4.2 10.2-4.2s7.5 1.4 10.2 4.2c2.7 2.8 4.1 6.2 4.1 10.3 0 4.1-1.4 7.5-4.1 10.3-2.7 2.8-6.1 4.2-10.2 4.2s-7.5-1.4-10.2-4.2c-2.7-2.8-4.1-6.2-4.1-10.3 0-4.1 1.4-7.6 4.1-10.3zm40.3-.1L303 80.1h.7l12.1-20.2v29h4.9V51.8h-5.6l-11.8 19.6-11.8-19.6H286v37.1h4.9V60zm42.6 0l12.2 20.1h.6l12.1-20.2v29h4.9V51.8h-5.6L346 71.4l-11.8-19.6h-5.6v37.1h4.9V60zm47.3 28.9h4.9v-15l13.2-22.1h-5.5l-10.1 17.4-10.1-17.4h-5.5l13.1 22.1v15zm-155.8 50h4.9v-32.4h10.9v-4.7h-26.7v4.7H225v32.4zm39.4-14.8c2.3-.8 4.1-2.2 5.5-4.2 1.4-2 2.1-4.2 2.1-6.6 0-3.2-1.1-5.9-3.4-8.2-2.3-2.2-5-3.4-8.2-3.4h-14.8v37.1h4.9v-14.2h8.7l8.3 14.2h5.4l-8.5-14.7zm-13.8-3.9v-13.8h9.9c1.8 0 3.4.7 4.7 2 1.3 1.3 1.9 3 1.9 4.9 0 1.9-.6 3.5-1.9 4.9-1.3 1.4-2.9 2-4.7 2h-9.9zm27.5-18.4h4.9v37.1h-4.9v-37.1zm35.9 27.6l-19.1-27.6h-4v37.1h5v-27.7l19 27.7h4v-37.1H314v27.6zm44.9-9.1c0-5.2-1.7-9.6-5-13.2-3.3-3.6-7.5-5.4-12.6-5.4h-14.5v37.1h14.5c5.1 0 9.3-1.8 12.6-5.4 3.3-3.6 5-7.9 5-13.1zm-17.6 13.9h-9.5v-27.7h9.5c3.8 0 6.9 1.3 9.3 4 2.4 2.6 3.6 6 3.6 9.9 0 3.9-1.2 7.3-3.6 9.9-2.4 2.6-5.5 3.9-9.3 3.9zm45.7 0h-17.2v-11.7h15.6v-4.7h-15.6v-11.3h17v-4.7h-21.9v37.1H387v-4.7zm28 4.7h5.4l-8.7-14.8c2.3-.8 4.1-2.2 5.5-4.2 1.4-2 2.1-4.2 2.1-6.6 0-3.2-1.1-5.9-3.4-8.2-2.3-2.2-5-3.4-8.2-3.4H393v37.1h4.9v-14.2h8.7l8.4 14.3zm-17.1-32.5h9.9c1.8 0 3.4.7 4.7 2 1.3 1.3 1.9 3 1.9 4.9 0 1.9-.6 3.5-1.9 4.9-1.3 1.4-2.9 2-4.7 2h-9.9v-13.8zM216 173.3h1.7v-7.4h7.4v-1.6h-7.4v-6.2h7.8v-1.6H216v16.8zm13.7-10v-2h-1.6v12h1.6v-6.7c0-3 1.9-4 3.8-4v-1.5c-1.5 0-2.9.5-3.8 2.2zm15.6.4c-1-1.6-2.7-2.6-4.8-2.6-3.4 0-6.2 2.7-6.2 6.3 0 3.6 2.8 6.3 6.2 6.3 2.1 0 3.8-1 4.8-2.6v2.4h1.6v-12h-1.6v2.2zm-4.8 8.4c-2.7 0-4.7-2.1-4.7-4.8 0-2.7 2.1-4.8 4.7-4.8s4.7 2.1 4.7 4.8c.1 2.7-2 4.8-4.7 4.8zM263 161c-1.5 0-3 .7-3.9 2.2-.7-1.4-2-2.2-3.6-2.2-1.4 0-2.7.6-3.7 2v-1.8h-1.6v12h1.6v-6.6c0-3 1.7-4.1 3.5-4.1 1.7 0 2.8 1.1 2.8 3.3v7.5h1.6v-6.6c0-3 1.5-4.1 3.3-4.1 1.7 0 2.9 1.1 2.9 3.3v7.5h1.6v-7.5c0-3.1-1.9-4.9-4.5-4.9zm13.1 0c-3.7 0-6.3 2.8-6.3 6.3 0 3.6 2.6 6.3 6.4 6.3 2.4 0 4.3-1.1 5.3-2.8l-1.4-.8c-.6 1.2-2 2-3.9 2-2.5 0-4.4-1.5-4.8-4H282v-.7c.1-3.2-2.2-6.3-5.9-6.3zm-4.6 5.6c.3-2.4 2.1-4 4.6-4 2.1 0 4 1.4 4.3 4h-8.9zM291 161c-2.1 0-3.8 1-4.8 2.6v-2.4h-1.6V178h1.6v-7.2c1 1.6 2.7 2.6 4.8 2.6 3.4 0 6.2-2.7 6.2-6.3 0-3.3-2.8-6.1-6.2-6.1zm-.1 11.1c-2.7 0-4.7-2.1-4.7-4.8 0-2.7 2.1-4.8 4.7-4.8s4.7 2.1 4.7 4.8c0 2.7-2 4.8-4.7 4.8zm14.5-11.1c-3.5 0-6.3 2.7-6.3 6.3 0 3.6 2.8 6.3 6.3 6.3s6.3-2.7 6.3-6.3c0-3.5-2.8-6.3-6.3-6.3zm0 11.1c-2.7 0-4.7-2.1-4.7-4.8 0-2.7 2.1-4.8 4.7-4.8s4.7 2.1 4.7 4.8c.1 2.7-2 4.8-4.7 4.8zm9.8-15.6c-.6 0-1.2.5-1.2 1.2s.5 1.2 1.2 1.2 1.2-.5 1.2-1.2-.6-1.2-1.2-1.2zm-.8 4.8h1.6v12h-1.6v-12zm10.5-.3c-1.7 0-3.1.6-4 2.2v-1.9h-1.6v12h1.6V167c0-3.2 1.8-4.5 3.9-4.5 2.1 0 3.3 1.2 3.3 3.4v7.4h1.6v-7.4c-.1-3-1.8-4.9-4.8-4.9zm10.7-3l-1.6.5v2.9h-2.5v1.5h2.5v7.3c0 2.9 1.8 3.7 5 3.2V172c-2.3.1-3.5.3-3.5-1.8v-7.3h3.5v-1.5h-3.5l.1-3.4zm22.9-1.5h-12v1.6h5.2v15.2h1.7v-15.2h5.1v-1.6zm5.6 4.5c-3.7 0-6.3 2.8-6.3 6.3 0 3.6 2.6 6.3 6.4 6.3 2.4 0 4.3-1.1 5.3-2.8l-1.4-.8c-.6 1.2-2 2-3.9 2-2.5 0-4.4-1.5-4.8-4h10.5v-.7c.1-3.2-2.2-6.3-5.8-6.3zm-4.7 5.6c.3-2.4 2.1-4 4.6-4 2.1 0 4 1.4 4.3 4h-8.9zm18.7 5.5c-2.7 0-4.7-2.1-4.7-4.8 0-2.7 2.1-4.8 4.7-4.8 1.8 0 3.3.9 4 2.4l1.3-.7c-.9-1.9-2.9-3.1-5.3-3.1-3.6 0-6.3 2.7-6.3 6.3 0 3.6 2.7 6.3 6.3 6.3 2.4 0 4.4-1.2 5.4-3.1l-1.3-.8c-.8 1.3-2.2 2.3-4.1 2.3zm13.3-11.1c-1.7 0-3.1.6-4 2.2v-6.7h-1.6v16.8h1.6V167c0-3.2 1.8-4.5 3.9-4.5 2.1 0 3.3 1.2 3.3 3.4v7.4h1.6v-7.4c-.1-3-1.9-4.9-4.8-4.9zm13.4 0c-1.7 0-3.1.6-4 2.2v-1.9h-1.6v12h1.6V167c0-3.2 1.8-4.5 3.9-4.5 2.1 0 3.3 1.2 3.3 3.4v7.4h1.6v-7.4c-.1-3-1.9-4.9-4.8-4.9zm13.4 0c-3.5 0-6.3 2.7-6.3 6.3 0 3.6 2.8 6.3 6.3 6.3s6.3-2.7 6.3-6.3c0-3.5-2.8-6.3-6.3-6.3zm0 11.1c-2.7 0-4.7-2.1-4.7-4.8 0-2.7 2.1-4.8 4.7-4.8s4.7 2.1 4.7 4.8c0 2.7-2.1 4.8-4.7 4.8zm8.9-16.3h1.6v17.5h-1.6v-17.5zm10.5 5.2c-3.5 0-6.3 2.7-6.3 6.3 0 3.6 2.8 6.3 6.3 6.3s6.3-2.7 6.3-6.3c.1-3.5-2.7-6.3-6.3-6.3zm0 11.1c-2.7 0-4.7-2.1-4.7-4.8 0-2.7 2.1-4.8 4.7-4.8s4.7 2.1 4.7 4.8c.1 2.7-2 4.8-4.7 4.8zm19.3-8.4c-1-1.6-2.7-2.6-4.8-2.6-3.4 0-6.2 2.7-6.2 6.3 0 3.6 2.8 6.3 6.2 6.3 2.1 0 3.8-1 4.8-2.6v1.9c0 2.4-1.7 4-4.4 4-2.6 0-3.7-1-4.3-2.2l-1.4.8c.9 1.9 2.9 2.9 5.7 2.9 3.1 0 6-1.9 6-5.6v-11.5h-1.6v2.3zm-4.7 8.4c-2.7 0-4.7-2.1-4.7-4.8 0-2.7 2.1-4.8 4.7-4.8s4.7 2.1 4.7 4.8c0 2.7-2 4.8-4.7 4.8zm14.4-.7l-4.5-10.1h-1.7l5.4 12.1-.3.7c-.6 1.6-1.7 2.7-3.3 2.5v1.5c2.2.2 3.9-1.4 4.8-3.7l5.1-13.1h-1.7l-3.8 10.1zm15.5-15.2c-4.8 0-8.7 3.9-8.7 8.7 0 4.8 3.9 8.7 8.7 8.7 4.8 0 8.7-3.9 8.7-8.7 0-4.8-3.9-8.7-8.7-8.7zm0 16.7c-4.4 0-8-3.6-8-8s3.6-8 8-8 8 3.6 8 8-3.6 8-8 8z"/><path d="M485.5 163.3c0-1.5-1.1-2.9-3.4-2.9h-2.7v8.9h1.5v-3.2h1.4l1.7 3.2h1.7l-1.9-3.5c1.2-.3 1.7-1.2 1.7-2.5zm-3.2 1.4H481v-2.8h1.3c1.2 0 1.8.6 1.8 1.4-.1.9-.7 1.4-1.8 1.4z"/></g></svg>