<?xml version="1.0" standalone="no"?>
<!DOCTYPE svg PUBLIC "-//W3C//DTD SVG 20010904//EN"
 "http://www.w3.org/TR/2001/REC-SVG-20010904/DTD/svg10.dtd">
<svg version="1.0" xmlns="http://www.w3.org/2000/svg"
 width="260.000000pt" height="260.000000pt" viewBox="0 0 260.000000 260.000000"
 preserveAspectRatio="xMidYMid meet">
<metadata>
Created by potrace 1.11, written by Peter Selinger 2001-2013
</metadata>
<g transform="translate(0.000000,260.000000) scale(0.100000,-0.100000)"
fill="#000000" stroke="none">
<path d="M1198 2275 c-2 -1 -21 -5 -43 -8 -145 -20 -315 -92 -442 -187 -168
-128 -309 -336 -359 -535 -4 -16 -8 -34 -10 -40 -14 -57 -22 -149 -19 -240 16
-544 465 -966 1010 -950 158 5 272 34 415 105 278 139 482 423 529 735 9 63 7
259 -4 310 -79 378 -333 663 -685 769 -47 14 -98 28 -115 31 -31 7 -271 15
-277 10z m273 -51 c181 -32 352 -119 487 -248 66 -62 165 -193 157 -206 -6 -9
-1625 -10 -1625 0 0 4 22 38 49 76 138 196 392 354 615 380 28 4 53 8 56 11 9
9 185 0 261 -13z m685 -519 c8 -10 14 -22 14 -27 0 -4 -389 -8 -865 -8 -476 0
-865 3 -865 8 0 4 6 16 14 27 13 20 29 20 851 20 813 0 837 -1 851 -20z m36
-85 c19 -41 47 -40 -887 -40 -627 0 -895 3 -895 11 0 6 4 18 9 27 8 16 74 17
888 17 771 0 879 -2 885 -15z m-915 -84 c5 -4 8 -273 9 -597 l0 -589 -26 0
-27 0 -1 543 c0 298 -1 554 -1 570 l-1 27 -426 0 c-384 0 -426 2 -420 16 3 9
6 19 6 24 0 5 8 10 17 12 35 7 863 1 870 -6z m944 -12 c4 -10 8 -22 8 -26 1
-5 -190 -8 -424 -8 l-425 0 0 -257 c0 -142 0 -399 0 -570 l0 -313 -28 0 -28 0
0 587 c1 324 4 593 8 598 4 6 162 10 444 9 422 0 438 -1 445 -20z m-1072 -80
c-1 -5 -7 -17 -13 -26 -10 -17 -40 -18 -392 -18 l-381 0 4 24 c4 18 13 26 32
28 65 8 751 0 750 -8z m1077 7 c7 -1 14 -12 16 -26 l5 -25 -377 0 -376 0 -27
28 -26 27 387 -2 c213 -1 392 -2 398 -2z m-1031 -567 l0 -525 -25 3 -25 3 0
500 c-1 489 0 501 20 526 11 15 22 24 25 22 3 -3 5 -241 5 -529z m270 -14 l0
-505 -25 -3 -25 -3 1 523 c1 288 2 527 3 531 0 4 11 -2 24 -15 l23 -22 -1
-506z m-398 487 c2 -3 -6 -14 -18 -26 -22 -20 -31 -21 -356 -21 l-333 0 0 24
c0 22 5 25 43 28 66 5 658 0 664 -5z m1156 3 c22 0 27 -4 27 -25 l0 -25 -333
0 -334 0 -22 24 -23 25 33 3 c26 2 452 1 652 -2z m-1114 -510 l0 -481 -22 7
c-12 3 -24 8 -26 10 -3 3 -5 823 -2 886 1 14 37 58 47 58 2 0 3 -216 3 -480z
m444 -15 c0 -464 0 -464 -39 -465 -7 0 -11 143 -11 481 l-1 482 26 -26 25 -26
0 -446z m-540 436 c4 -1 7 -197 7 -436 0 -341 -3 -435 -12 -435 -26 1 -146 58
-215 102 -242 157 -402 421 -429 708 l-5 59 38 3 c30 2 587 1 616 -1z m1216 0
c22 -1 23 -3 17 -58 -32 -292 -172 -534 -402 -693 -68 -47 -216 -120 -243
-120 -8 0 -11 125 -11 434 0 399 1 435 17 438 13 2 504 1 622 -1z"/>
</g>
</svg>
