<?xml version="1.0" standalone="no"?>
<!DOCTYPE svg PUBLIC "-//W3C//DTD SVG 20010904//EN"
 "http://www.w3.org/TR/2001/REC-SVG-20010904/DTD/svg10.dtd">
<svg version="1.0" xmlns="http://www.w3.org/2000/svg"
 width="533.000000pt" height="533.000000pt" viewBox="0 0 533.000000 533.000000"
 preserveAspectRatio="xMidYMid meet">
<metadata>
Created by potrace 1.11, written by Peter Selinger 2001-2013
</metadata>
<g transform="translate(0.000000,533.000000) scale(0.100000,-0.100000)"
fill="#000000" stroke="none">
<path d="M2587 5324 c-1 -1 -47 -4 -103 -8 -111 -6 -276 -27 -324 -41 -8 -2
-29 -7 -46 -9 -62 -11 -222 -56 -324 -91 -779 -272 -1391 -896 -1650 -1684
-48 -144 -103 -389 -114 -506 -3 -33 -9 -85 -12 -115 -7 -74 -8 -352 0 -417 3
-29 9 -77 12 -105 53 -498 270 -999 604 -1396 185 -221 384 -395 633 -552 233
-146 570 -285 813 -334 115 -24 123 -25 189 -36 152 -26 497 -34 670 -17 731
73 1411 455 1857 1042 142 188 291 460 372 680 44 118 106 338 120 425 36 218
40 265 40 505 1 218 -2 257 -29 435 -25 158 -86 376 -157 554 -193 486 -547
924 -985 1217 -56 38 -105 69 -109 69 -3 0 -18 8 -32 19 -79 55 -310 162 -476
220 -86 30 -285 84 -356 96 -19 3 -42 8 -50 10 -8 2 -42 7 -75 11 -33 3 -68 8
-78 10 -46 8 -382 24 -390 18z m375 -117 c40 -7 97 -16 143 -23 22 -3 87 -16
145 -30 581 -136 1099 -473 1460 -949 74 -99 182 -266 176 -273 -6 -6 -4426
-5 -4432 1 -7 6 64 122 129 212 360 499 903 870 1467 1000 146 34 240 51 340
61 36 3 67 8 69 10 6 5 470 -3 503 -9z m2017 -1445 c17 -35 29 -67 26 -71 -5
-8 -4663 -13 -4677 -5 -7 4 49 126 62 134 5 3 1032 5 2283 5 l2275 0 31 -63z
m96 -229 c9 -27 21 -58 26 -70 l9 -23 -2440 0 c-1342 0 -2440 2 -2440 4 0 4
22 66 39 109 l11 27 2389 0 2389 0 17 -47z m-2465 -202 c4 -1 5 -3150 1 -3214
-1 -16 -8 -17 -58 -13 -32 2 -63 5 -70 5 -8 1 -11 375 -11 1526 0 1192 -3
1529 -12 1540 -11 13 -158 15 -1155 15 l-1143 0 16 63 c8 34 18 67 23 72 5 7
413 10 1206 9 659 -1 1200 -2 1203 -3z m2537 -32 c6 -20 15 -53 18 -73 l7 -36
-1139 0 c-1073 0 -1141 -1 -1155 -17 -14 -16 -16 -176 -16 -1536 0 -835 -2
-1521 -5 -1523 -2 -3 -35 -6 -73 -7 l-69 -2 0 1605 c-1 883 0 1610 2 1615 2 7
413 10 1211 10 l1207 0 12 -36z m-2915 -282 l-72 -72 -1007 1 c-555 1 -1013 2
-1018 3 -7 1 -8 23 -1 71 l10 70 1080 0 1080 0 -72 -73z m2961 59 c3 -8 9 -39
12 -69 5 -41 3 -55 -7 -59 -7 -2 -466 -4 -1020 -3 l-1007 0 -70 73 -71 72
1079 0 c928 0 1080 -2 1084 -14z m-2823 -1516 c0 -788 -2 -1435 -4 -1438 -3
-2 -39 2 -82 9 -43 7 -71 15 -63 18 13 5 14 180 13 1361 l0 1355 65 67 c36 37
66 66 68 64 2 -2 3 -648 3 -1436z m669 1376 l63 -63 0 -1359 c-1 -1033 2
-1360 11 -1366 9 -5 8 -8 -3 -9 -8 0 -24 -2 -35 -4 -11 -2 -40 -7 -65 -10
l-45 -6 0 1441 c0 792 2 1440 5 1440 3 0 34 -29 69 -64z m-989 -96 c0 -2 -30
-35 -67 -72 l-67 -68 -903 0 -903 0 0 69 c0 38 5 71 10 73 16 5 1930 4 1930
-2z m3170 1 c3 -1 6 -33 8 -71 l3 -70 -906 0 -907 0 -69 69 c-38 38 -65 71
-59 73 9 3 1918 2 1930 -1z m-3085 -1370 c0 -715 -3 -1303 -7 -1306 -6 -6 -92
12 -118 25 -13 7 -15 152 -15 1224 l0 1217 69 69 c38 39 69 70 70 70 1 0 1
-585 1 -1299z m1205 -58 l0 -1222 -37 -10 c-21 -6 -52 -13 -69 -15 l-31 -6 0
1306 0 1305 69 -68 68 -67 0 -1223z m-1445 4 c0 -649 -2 -1183 -5 -1187 -8
-13 -198 62 -355 139 -679 335 -1170 946 -1354 1686 -20 80 -22 92 -42 220 -6
39 -12 81 -15 95 -2 14 -6 71 -10 128 l-6 102 893 -2 894 -3 0 -1178z m3330
1111 c-10 -127 -25 -261 -36 -313 -5 -27 -11 -59 -13 -70 -23 -116 -76 -293
-136 -449 -37 -98 -153 -318 -225 -428 -282 -431 -696 -777 -1160 -968 -44
-18 -89 -37 -100 -41 -11 -5 -41 -15 -66 -23 l-46 -13 0 1188 0 1189 894 0
894 0 -6 -72z"/>
</g>
</svg>
