<svg xmlns="http://www.w3.org/2000/svg" width="200" height="200" viewBox="0 0 52.91667 52.91667"><path fill="#434343" d="M35.35377 2.0183C21.85333-2.89545 6.93207 4.06243 2.0183 17.5629c-4.91376 13.50043 2.04414 28.4217 15.5446 33.33546 13.50044 4.91377 28.4217-2.04414 33.33546-15.5446 4.91378-13.50044-2.04413-28.4217-15.5446-33.33546zM3.77122 37.0375C1.1462 31.40812.59884 24.78925 2.73914 18.4447l2.63544.95922 13.7988 5.02234-7.96336 21.87918c-3.23856-2.47393-5.76258-5.67326-7.4388-9.26794zm1.92913-18.52865l-2.63544-.95922c.1629-.44753.3507-.886.53838-1.3245l2.58572.94113 15.34028 5.5834-1.83125.85393zm6.30518 28.39586l8.18055-22.47588 1.76342-.8223-8.75972 24.0671c-.3955-.22845-.78197-.4817-1.18425-.7689zm-5.4817-30.65836l-2.51112-.91397c.2126-.42944.4501-.8498.68757-1.2702l2.6603.96828 17.25472 6.2802-1.83126.85393zm8.71814 32.59655c-.5944-.30085-1.17978-.6265-1.7403-.94314l.547.19908 9.12166-25.0616 1.76343-.8223zm2.18335.9636c-.44753-.16288-.86113-.34162-1.29963-.52932L26.26992 21.4061c.0453-.1243.0317-.24184-.007-.36846-.0477-.10168-.15365-.19672-.27797-.24196L7.71088 14.14446l-2.48627-.90493c.26235-.41133.52468-.82266.81188-1.22494l1.59122.57914 20.61117 7.50185zm3.23672 1.00914l9.69178-26.62795.8223 1.7634-9.12167 25.0616.54697.1991c-.6329-.11774-1.29066-.2445-1.93938-.39616zm3.7251.5956c-.4679-.0295-.92677-.0839-1.4105-.14735l8.7597-24.0671.82232 1.76343zm12.65037-2.2658c-3.59467 1.67623-7.58467 2.50465-11.65575 2.3181l7.96337-21.8792 13.7988 5.02236 2.63545.95923c-2.4138 6.24502-7.0876 10.96354-12.74186 13.5795zM50.13 34.67992l-2.63545-.9592-13.9977-5.09477-.85392-1.83125 15.3403 5.5834 2.5857.94114c-.13798.4566-.30086.90412-.43894 1.36068zm.6743-2.3168l-2.51113-.91398-16.2602-5.91823-.85393-1.83124 17.25472 6.2802 2.6603.96828c-.0883.47468-.1766.94936-.28975 1.41498zm.46636-2.36433l-2.48627-.90494-18.2741-6.65123c-.1243-.0452-.24185-.0317-.36845.007-.10172.0477-.19672.15365-.24195.278L19.75565 50.5987c-.4566-.138-.938-.28512-1.41947-.43216l10.82294-29.73578 20.68577 7.529 1.5912.57916c-.0634.48372-.102.9765-.16544 1.46022zm.2268-2.4797l-1.31773-.47962-21.0587-7.66473L7.96285 11.6738l-1.31772-.4796c.31207-.39324.62412-.78648.96105-1.17065l.84532.30767L50.6684 25.6969l.84532.30767c.0111.51088-.003 1.0127-.0163 1.51453zm-.0309-2.54533l-.49726-.18098L8.75243 9.4271l-.49725-.18098c.3618-.37513.72358-.75026 1.1351-1.1073l41.9185 15.2571c.0699.5041.1308 1.03308.15777 1.57785zM10.22235 7.3999c1.71387-1.45978 3.62208-2.67987 5.6568-3.6287 5.79894-2.70408 12.65062-3.19485 19.1398-.833 6.48916 2.36187 11.4224 7.142 14.1265 12.94095.9488 2.03472 1.62627 4.19596 2.0009 6.41586z" class="st0"/></svg>