<?xml version="1.0" encoding="UTF-8"?>
<svg width="491px" height="197px" viewBox="0 0 491 197" version="1.1" xmlns="http://www.w3.org/2000/svg" xmlns:xlink="http://www.w3.org/1999/xlink">
    <!-- Generator: Sketch 51.2 (57519) - http://www.bohemiancoding.com/sketch -->
    <title>tt-logo-black</title>
    <desc>Created with Sketch.</desc>
    <defs></defs>
    <g id="Page-1" stroke="none" stroke-width="1" fill="none" fill-rule="evenodd">
        <g id="tt-logo-black" fill="#333333" fill-rule="nonzero">
            <path d="M98.5,0.2 C44.2,0.2 0.2,44.2 0.2,98.5 C0.2,152.8 44.2,196.8 98.5,196.8 C152.8,196.8 196.8,152.8 196.8,98.5 C196.8,44.2 152.8,0.2 98.5,0.2 Z M31.6,165.4 C15,148.8 4.5,126 3.9,100.7 L70,100.7 L70,188.7 C55.3,184.1 42.2,176 31.6,165.4 Z M14.5,97.1 L3.9,97.1 C3.9,95.3 4,93.5 4.1,91.7 L76.2,91.7 L70.8,97.1 L14.5,97.1 Z M73.6,189.8 L73.6,99.4 L78.8,94.2 L78.8,191 C77.1,190.7 75.4,190.3 73.6,189.8 Z M14.5,88 L4.4,88 C4.6,86.2 4.9,84.4 5.2,82.6 L85.3,82.6 L79.9,88 L14.5,88 Z M87.6,192.5 C85.1,192.2 82.6,191.8 80.2,191.4 L82.4,191.4 L82.4,90.6 L87.6,85.4 L87.6,192.5 Z M96.6,193.1 C94.8,193.1 93.1,193 91.3,192.9 L91.3,80.8 C91.3,80.3 91.1,79.9 90.8,79.5 C90.5,79.2 90,79 89.5,79 L6,79 C6.4,77.2 6.8,75.4 7.3,73.6 L96.6,73.6 L96.6,193.1 Z M109.4,192.5 L109.4,85.4 L114.6,90.6 L114.6,191.4 L116.8,191.4 C114.4,191.8 111.9,192.2 109.4,192.5 Z M123.4,189.8 C121.7,190.3 120,190.7 118.2,191.1 L118.2,94.3 L123.4,99.5 L123.4,189.8 Z M165.4,165.4 C154.8,176 141.7,184.1 127,188.7 L127,100.7 L193.1,100.7 C192.6,126 182.1,148.8 165.4,165.4 Z M193.2,97.1 L126.3,97.1 L120.9,91.7 L193,91.7 C193.1,93.5 193.1,95.3 193.2,97.1 Z M192.6,88 L117.1,88 L111.7,82.6 L191.8,82.6 C192.1,84.4 192.4,86.2 192.6,88 Z M191.2,79 L107.7,79 C107.2,79 106.8,79.2 106.4,79.5 C106.1,79.8 105.9,80.3 105.9,80.8 L105.9,192.9 C104.1,193 102.2,193.1 100.3,193.2 L100.3,73.6 L189.9,73.6 C190.3,75.4 190.8,77.2 191.2,79 Z M188.8,69.9 L8.4,69.9 C9,68.1 9.6,66.3 10.3,64.5 L186.9,64.5 C187.6,66.3 188.2,68.1 188.8,69.9 Z M185.4,60.9 L11.6,60.9 C12.4,59.1 13.2,57.3 14.2,55.5 L182.8,55.5 C183.7,57.2 184.6,59 185.4,60.9 Z M16.2,51.8 C20.4,44.4 25.6,37.6 31.6,31.6 C48.7,14.5 72.4,3.9 98.5,3.9 C124.6,3.9 148.3,14.5 165.4,31.6 C171.4,37.6 176.6,44.4 180.8,51.8 L16.2,51.8 Z M225,88.9 L229.9,88.9 L229.9,56.5 L240.8,56.5 L240.8,51.8 L214.1,51.8 L214.1,56.5 L225,56.5 L225,88.9 Z M260.8,89.6 C266.2,89.6 270.7,87.7 274.4,84 C278.1,80.2 280,75.7 280,70.4 C280,65.1 278.1,60.5 274.4,56.8 C270.7,53.1 266.1,51.2 260.8,51.2 C255.4,51.2 250.9,53.1 247.2,56.8 C243.5,60.5 241.6,65.1 241.6,70.4 C241.6,75.7 243.5,80.3 247.2,84 C250.9,87.7 255.4,89.6 260.8,89.6 Z M250.6,60.1 C253.3,57.3 256.7,55.9 260.8,55.9 C264.9,55.9 268.3,57.3 271,60.1 C273.7,62.9 275.1,66.3 275.1,70.4 C275.1,74.5 273.7,77.9 271,80.7 C268.3,83.5 264.9,84.9 260.8,84.9 C256.7,84.9 253.3,83.5 250.6,80.7 C247.9,77.9 246.5,74.5 246.5,70.4 C246.5,66.3 247.9,62.8 250.6,60.1 Z M290.9,60 L303,80.1 L303.7,80.1 L315.8,59.9 L315.8,88.9 L320.7,88.9 L320.7,51.8 L315.1,51.8 L303.3,71.4 L291.5,51.8 L286,51.8 L286,88.9 L290.9,88.9 L290.9,60 Z M333.5,60 L345.7,80.1 L346.3,80.1 L358.4,59.9 L358.4,88.9 L363.3,88.9 L363.3,51.8 L357.7,51.8 L346,71.4 L334.2,51.8 L328.6,51.8 L328.6,88.9 L333.5,88.9 L333.5,60 Z M380.8,88.9 L385.7,88.9 L385.7,73.9 L398.9,51.8 L393.4,51.8 L383.3,69.2 L373.2,51.8 L367.7,51.8 L380.8,73.9 L380.8,88.9 Z M225,138.9 L229.9,138.9 L229.9,106.5 L240.8,106.5 L240.8,101.8 L214.1,101.8 L214.1,106.5 L225,106.5 L225,138.9 Z M264.4,124.1 C266.7,123.3 268.5,121.9 269.9,119.9 C271.3,117.9 272,115.7 272,113.3 C272,110.1 270.9,107.4 268.6,105.1 C266.3,102.9 263.6,101.7 260.4,101.7 L245.6,101.7 L245.6,138.8 L250.5,138.8 L250.5,124.6 L259.2,124.6 L267.5,138.8 L272.9,138.8 L264.4,124.1 Z M250.6,120.2 L250.6,106.4 L260.5,106.4 C262.3,106.4 263.9,107.1 265.2,108.4 C266.5,109.7 267.1,111.4 267.1,113.3 C267.1,115.2 266.5,116.8 265.2,118.2 C263.9,119.6 262.3,120.2 260.5,120.2 L250.6,120.2 Z M278.1,101.8 L283,101.8 L283,138.9 L278.1,138.9 L278.1,101.8 Z M314,129.4 L294.9,101.8 L290.9,101.8 L290.9,138.9 L295.9,138.9 L295.9,111.2 L314.9,138.9 L318.9,138.9 L318.9,101.8 L314,101.8 L314,129.4 Z M358.9,120.3 C358.9,115.1 357.2,110.7 353.9,107.1 C350.6,103.5 346.4,101.7 341.3,101.7 L326.8,101.7 L326.8,138.8 L341.3,138.8 C346.4,138.8 350.6,137 353.9,133.4 C357.2,129.8 358.9,125.5 358.9,120.3 Z M341.3,134.2 L331.8,134.2 L331.8,106.5 L341.3,106.5 C345.1,106.5 348.2,107.8 350.6,110.5 C353,113.1 354.2,116.5 354.2,120.4 C354.2,124.3 353,127.7 350.6,130.3 C348.2,132.9 345.1,134.2 341.3,134.2 Z M387,134.2 L369.8,134.2 L369.8,122.5 L385.4,122.5 L385.4,117.8 L369.8,117.8 L369.8,106.5 L386.8,106.5 L386.8,101.8 L364.9,101.8 L364.9,138.9 L387,138.9 L387,134.2 Z M415,138.9 L420.4,138.9 L411.7,124.1 C414,123.3 415.8,121.9 417.2,119.9 C418.6,117.9 419.3,115.7 419.3,113.3 C419.3,110.1 418.2,107.4 415.9,105.1 C413.6,102.9 410.9,101.7 407.7,101.7 L393,101.7 L393,138.8 L397.9,138.8 L397.9,124.6 L406.6,124.6 L415,138.9 Z M397.9,106.4 L407.8,106.4 C409.6,106.4 411.2,107.1 412.5,108.4 C413.8,109.7 414.4,111.4 414.4,113.3 C414.4,115.2 413.8,116.8 412.5,118.2 C411.2,119.6 409.6,120.2 407.8,120.2 L397.9,120.2 L397.9,106.4 Z M216,173.3 L217.7,173.3 L217.7,165.9 L225.1,165.9 L225.1,164.3 L217.7,164.3 L217.7,158.1 L225.5,158.1 L225.5,156.5 L216,156.5 L216,173.3 Z M229.7,163.3 L229.7,161.3 L228.1,161.3 L228.1,173.3 L229.7,173.3 L229.7,166.6 C229.7,163.6 231.6,162.6 233.5,162.6 L233.5,161.1 C232,161.1 230.6,161.6 229.7,163.3 Z M245.3,163.7 C244.3,162.1 242.6,161.1 240.5,161.1 C237.1,161.1 234.3,163.8 234.3,167.4 C234.3,171 237.1,173.7 240.5,173.7 C242.6,173.7 244.3,172.7 245.3,171.1 L245.3,173.5 L246.9,173.5 L246.9,161.5 L245.3,161.5 L245.3,163.7 Z M240.5,172.1 C237.8,172.1 235.8,170 235.8,167.3 C235.8,164.6 237.9,162.5 240.5,162.5 C243.1,162.5 245.2,164.6 245.2,167.3 C245.3,170 243.2,172.1 240.5,172.1 Z M263,161 C261.5,161 260,161.7 259.1,163.2 C258.4,161.8 257.1,161 255.5,161 C254.1,161 252.8,161.6 251.8,163 L251.8,161.2 L250.2,161.2 L250.2,173.2 L251.8,173.2 L251.8,166.6 C251.8,163.6 253.5,162.5 255.3,162.5 C257,162.5 258.1,163.6 258.1,165.8 L258.1,173.3 L259.7,173.3 L259.7,166.7 C259.7,163.7 261.2,162.6 263,162.6 C264.7,162.6 265.9,163.7 265.9,165.9 L265.9,173.4 L267.5,173.4 L267.5,165.9 C267.5,162.8 265.6,161 263,161 Z M276.1,161 C272.4,161 269.8,163.8 269.8,167.3 C269.8,170.9 272.4,173.6 276.2,173.6 C278.6,173.6 280.5,172.5 281.5,170.8 L280.1,170 C279.5,171.2 278.1,172 276.2,172 C273.7,172 271.8,170.5 271.4,168 L282,168 L282,167.3 C282.1,164.1 279.8,161 276.1,161 Z M271.5,166.6 C271.8,164.2 273.6,162.6 276.1,162.6 C278.2,162.6 280.1,164 280.4,166.6 L271.5,166.6 Z M291,161 C288.9,161 287.2,162 286.2,163.6 L286.2,161.2 L284.6,161.2 L284.6,178 L286.2,178 L286.2,170.8 C287.2,172.4 288.9,173.4 291,173.4 C294.4,173.4 297.2,170.7 297.2,167.1 C297.2,163.8 294.4,161 291,161 Z M290.9,172.1 C288.2,172.1 286.2,170 286.2,167.3 C286.2,164.6 288.3,162.5 290.9,162.5 C293.5,162.5 295.6,164.6 295.6,167.3 C295.6,170 293.6,172.1 290.9,172.1 Z M305.4,161 C301.9,161 299.1,163.7 299.1,167.3 C299.1,170.9 301.9,173.6 305.4,173.6 C308.9,173.6 311.7,170.9 311.7,167.3 C311.7,163.8 308.9,161 305.4,161 Z M305.4,172.1 C302.7,172.1 300.7,170 300.7,167.3 C300.7,164.6 302.8,162.5 305.4,162.5 C308,162.5 310.1,164.6 310.1,167.3 C310.2,170 308.1,172.1 305.4,172.1 Z M315.2,156.5 C314.6,156.5 314,157 314,157.7 C314,158.4 314.5,158.9 315.2,158.9 C315.9,158.9 316.4,158.4 316.4,157.7 C316.4,157 315.8,156.5 315.2,156.5 Z M314.4,161.3 L316,161.3 L316,173.3 L314.4,173.3 L314.4,161.3 Z M324.9,161 C323.2,161 321.8,161.6 320.9,163.2 L320.9,161.3 L319.3,161.3 L319.3,173.3 L320.9,173.3 L320.9,167 C320.9,163.8 322.7,162.5 324.8,162.5 C326.9,162.5 328.1,163.7 328.1,165.9 L328.1,173.3 L329.7,173.3 L329.7,165.9 C329.6,162.9 327.9,161 324.9,161 Z M335.6,158 L334,158.5 L334,161.4 L331.5,161.4 L331.5,162.9 L334,162.9 L334,170.2 C334,173.1 335.8,173.9 339,173.4 L339,172 C336.7,172.1 335.5,172.3 335.5,170.2 L335.5,162.9 L339,162.9 L339,161.4 L335.5,161.4 L335.6,158 Z M358.5,156.5 L346.5,156.5 L346.5,158.1 L351.7,158.1 L351.7,173.3 L353.4,173.3 L353.4,158.1 L358.5,158.1 L358.5,156.5 Z M364.1,161 C360.4,161 357.8,163.8 357.8,167.3 C357.8,170.9 360.4,173.6 364.2,173.6 C366.6,173.6 368.5,172.5 369.5,170.8 L368.1,170 C367.5,171.2 366.1,172 364.2,172 C361.7,172 359.8,170.5 359.4,168 L369.9,168 L369.9,167.3 C370,164.1 367.7,161 364.1,161 Z M359.4,166.6 C359.7,164.2 361.5,162.6 364,162.6 C366.1,162.6 368,164 368.3,166.6 L359.4,166.6 Z M378.1,172.1 C375.4,172.1 373.4,170 373.4,167.3 C373.4,164.6 375.5,162.5 378.1,162.5 C379.9,162.5 381.4,163.4 382.1,164.9 L383.4,164.2 C382.5,162.3 380.5,161.1 378.1,161.1 C374.5,161.1 371.8,163.8 371.8,167.4 C371.8,171 374.5,173.7 378.1,173.7 C380.5,173.7 382.5,172.5 383.5,170.6 L382.2,169.8 C381.4,171.1 380,172.1 378.1,172.1 Z M391.4,161 C389.7,161 388.3,161.6 387.4,163.2 L387.4,156.5 L385.8,156.5 L385.8,173.3 L387.4,173.3 L387.4,167 C387.4,163.8 389.2,162.5 391.3,162.5 C393.4,162.5 394.6,163.7 394.6,165.9 L394.6,173.3 L396.2,173.3 L396.2,165.9 C396.1,162.9 394.3,161 391.4,161 Z M404.8,161 C403.1,161 401.7,161.6 400.8,163.2 L400.8,161.3 L399.2,161.3 L399.2,173.3 L400.8,173.3 L400.8,167 C400.8,163.8 402.6,162.5 404.7,162.5 C406.8,162.5 408,163.7 408,165.9 L408,173.3 L409.6,173.3 L409.6,165.9 C409.5,162.9 407.7,161 404.8,161 Z M418.2,161 C414.7,161 411.9,163.7 411.9,167.3 C411.9,170.9 414.7,173.6 418.2,173.6 C421.7,173.6 424.5,170.9 424.5,167.3 C424.5,163.8 421.7,161 418.2,161 Z M418.2,172.1 C415.5,172.1 413.5,170 413.5,167.3 C413.5,164.6 415.6,162.5 418.2,162.5 C420.8,162.5 422.9,164.6 422.9,167.3 C422.9,170 420.8,172.1 418.2,172.1 Z M427.1,155.8 L428.7,155.8 L428.7,173.3 L427.1,173.3 L427.1,155.8 Z M437.6,161 C434.1,161 431.3,163.7 431.3,167.3 C431.3,170.9 434.1,173.6 437.6,173.6 C441.1,173.6 443.9,170.9 443.9,167.3 C444,163.8 441.2,161 437.6,161 Z M437.6,172.1 C434.9,172.1 432.9,170 432.9,167.3 C432.9,164.6 435,162.5 437.6,162.5 C440.2,162.5 442.3,164.6 442.3,167.3 C442.4,170 440.3,172.1 437.6,172.1 Z M456.9,163.7 C455.9,162.1 454.2,161.1 452.1,161.1 C448.7,161.1 445.9,163.8 445.9,167.4 C445.9,171 448.7,173.7 452.1,173.7 C454.2,173.7 455.9,172.7 456.9,171.1 L456.9,173 C456.9,175.4 455.2,177 452.5,177 C449.9,177 448.8,176 448.2,174.8 L446.8,175.6 C447.7,177.5 449.7,178.5 452.5,178.5 C455.6,178.5 458.5,176.6 458.5,172.9 L458.5,161.4 L456.9,161.4 L456.9,163.7 Z M452.2,172.1 C449.5,172.1 447.5,170 447.5,167.3 C447.5,164.6 449.6,162.5 452.2,162.5 C454.8,162.5 456.9,164.6 456.9,167.3 C456.9,170 454.9,172.1 452.2,172.1 Z M466.6,171.4 L462.1,161.3 L460.4,161.3 L465.8,173.4 L465.5,174.1 C464.9,175.7 463.8,176.8 462.2,176.6 L462.2,178.1 C464.4,178.3 466.1,176.7 467,174.4 L472.1,161.3 L470.4,161.3 L466.6,171.4 Z M482.1,156.2 C477.3,156.2 473.4,160.1 473.4,164.9 C473.4,169.7 477.3,173.6 482.1,173.6 C486.9,173.6 490.8,169.7 490.8,164.9 C490.8,160.1 486.9,156.2 482.1,156.2 Z M482.1,172.9 C477.7,172.9 474.1,169.3 474.1,164.9 C474.1,160.5 477.7,156.9 482.1,156.9 C486.5,156.9 490.1,160.5 490.1,164.9 C490.1,169.3 486.5,172.9 482.1,172.9 Z" id="Shape"></path>
            <path d="M485.5,163.3 C485.5,161.8 484.4,160.4 482.1,160.4 L479.4,160.4 L479.4,169.3 L480.9,169.3 L480.9,166.1 L482.3,166.1 L484,169.3 L485.7,169.3 L483.8,165.8 C485,165.5 485.5,164.6 485.5,163.3 Z M482.3,164.7 L481,164.7 L481,161.9 L482.3,161.9 C483.5,161.9 484.1,162.5 484.1,163.3 C484,164.2 483.4,164.7 482.3,164.7 Z" id="Shape"></path>
        </g>
    </g>
</svg>